<?xml version="1.0" encoding="UTF-8" standalone="no" ?>
<!DOCTYPE svg PUBLIC "-//W3C//DTD SVG 1.1//EN" "http://www.w3.org/Graphics/SVG/1.1/DTD/svg11.dtd">
<svg xmlns="http://www.w3.org/2000/svg" xmlns:xlink="http://www.w3.org/1999/xlink" version="1.1" width="1080" height="1080" viewBox="0 0 1080 1080" xml:space="preserve">
<desc>Created with Fabric.js 5.2.4</desc>
<defs>
</defs>
<g transform="matrix(1 0 0 1 540 540)" id="a6a199e8-76d1-4fcb-8cb3-532a5a1b5969"  >
<rect style="stroke: none; stroke-width: 1; stroke-dasharray: none; stroke-linecap: butt; stroke-dashoffset: 0; stroke-linejoin: miter; stroke-miterlimit: 4; fill: rgb(255,255,255); fill-rule: nonzero; opacity: 1; visibility: hidden;" vector-effect="non-scaling-stroke"  x="-540" y="-540" rx="0" ry="0" width="1080" height="1080" />
</g>
<g transform="matrix(1 0 0 1 540 540)" id="8829153c-0b58-46ab-979c-af18c61dddb4"  >
</g>
<g transform="matrix(0.13 0 0 -0.13 540.67 540.67)"  >
<path style="stroke: none; stroke-width: 29; stroke-dasharray: none; stroke-linecap: butt; stroke-dashoffset: 0; stroke-linejoin: miter; stroke-miterlimit: 4; fill: rgb(108,51,51); fill-rule: nonzero; opacity: 0;" vector-effect="non-scaling-stroke"  transform=" translate(-4000, -4000)" d="M 0 0 L 8000 0 L 8000 8000 L 0 8000 Z" stroke-linecap="round" />
</g>
<g transform="matrix(0.13 0 0 -0.13 363.9 615.82)"  >
<path style="stroke: none; stroke-width: 1; stroke-dasharray: none; stroke-linecap: butt; stroke-dashoffset: 0; stroke-linejoin: miter; stroke-miterlimit: 4; fill: rgb(17,39,57); fill-rule: nonzero; opacity: 1;" vector-effect="non-scaling-stroke"  transform=" translate(-2680.41, -3424.31)" d="M 2634.38 3667.4 C 2634.38 3677.09 2634.9100000000003 3684.63 2636 3690.02 C 2637.07 3695.39 2640.57 3699.31 2646.49 3701.73 C 2652.41 3704.15 2661.56 3705.62 2673.9599999999996 3706.16 C 2686.3299999999995 3706.7 2703.8299999999995 3706.97 2726.4499999999994 3706.97 L 2726.4499999999994 3157.81 C 2726.4499999999994 3153.5 2725.899999999999 3150.2599999999998 2724.8299999999995 3148.12 C 2723.7499999999995 3145.97 2720.3899999999994 3144.48 2714.7399999999993 3143.68 C 2709.0799999999995 3142.87 2699.919999999999 3142.3199999999997 2687.2799999999993 3142.06 C 2674.6199999999994 3141.79 2656.9899999999993 3141.66 2634.379999999999 3141.66 L 2634.379999999999 3667.3999999999996" stroke-linecap="round" />
</g>
<g transform="matrix(0.13 0 0 -0.13 396.07 615.82)"  >
<path style="stroke: none; stroke-width: 1; stroke-dasharray: none; stroke-linecap: butt; stroke-dashoffset: 0; stroke-linejoin: miter; stroke-miterlimit: 4; fill: rgb(17,39,57); fill-rule: nonzero; opacity: 1;" vector-effect="non-scaling-stroke"  transform=" translate(-2924.29, -3424.31)" d="M 2901.68 3358.1 C 2897.37 3369.4 2892.9199999999996 3382.19 2888.3599999999997 3396.46 C 2883.7799999999997 3410.71 2879.47 3425.79 2875.43 3441.68 C 2871.3999999999996 3457.56 2867.6299999999997 3473.44 2864.1299999999997 3489.33 C 2860.6299999999997 3505.21 2857.2699999999995 3520.15 2854.0399999999995 3534.15 C 2857.2699999999995 3501.85 2859.9599999999996 3469.67 2862.1099999999997 3437.65 C 2864.2599999999998 3405.61 2865.3399999999997 3376.9300000000003 2865.3399999999997 3351.63 L 2865.3399999999997 3157.81 C 2865.3399999999997 3153.5 2864.7999999999997 3150.2599999999998 2863.7299999999996 3148.12 C 2862.6399999999994 3145.97 2859.2899999999995 3144.48 2853.6299999999997 3143.68 C 2847.9799999999996 3142.87 2839.0999999999995 3142.3199999999997 2826.9799999999996 3142.06 C 2814.8699999999994 3141.79 2797.4999999999995 3141.66 2774.8899999999994 3141.66 L 2774.8899999999994 3690.8199999999997 C 2774.8899999999994 3701.58 2780.2699999999995 3706.97 2791.0399999999995 3706.97 L 2862.9199999999996 3706.97 L 2946.9099999999994 3494.58 C 2951.2099999999996 3482.72 2955.5099999999993 3469.94 2959.8299999999995 3456.22 C 2964.1299999999997 3442.49 2968.3099999999995 3428.3599999999997 2972.3499999999995 3413.8199999999997 C 2976.3899999999994 3399.2799999999997 2980.1499999999996 3384.7499999999995 2983.6499999999996 3370.2099999999996 C 2987.1499999999996 3355.6699999999996 2990.24 3341.9399999999996 2992.9399999999996 3329.0199999999995 C 2989.1699999999996 3362.3999999999996 2986.6099999999997 3392.8199999999997 2985.2699999999995 3420.2799999999997 C 2983.9199999999996 3447.7299999999996 2983.2499999999995 3475.2 2983.2499999999995 3502.66 L 2983.2499999999995 3690.8199999999997 C 2983.2499999999995 3694.58 2983.7799999999997 3697.6899999999996 2984.8599999999997 3700.1099999999997 C 2985.9399999999996 3702.5299999999997 2989.3099999999995 3704.1499999999996 2994.9599999999996 3704.95 C 3000.6199999999994 3705.7599999999998 3009.6199999999994 3706.29 3022.0199999999995 3706.5699999999997 C 3034.3899999999994 3706.8399999999997 3051.6199999999994 3706.97 3073.6999999999994 3706.97 L 3073.6999999999994 3157.81 C 3073.6999999999994 3147.0299999999997 3068.3099999999995 3141.66 3057.5499999999993 3141.66 L 2987.289999999999 3141.66 L 2901.679999999999 3358.1" stroke-linecap="round" />
</g>
<g transform="matrix(0.13 0 0 -0.13 436.6 615.82)"  >
<path style="stroke: none; stroke-width: 1; stroke-dasharray: none; stroke-linecap: butt; stroke-dashoffset: 0; stroke-linejoin: miter; stroke-miterlimit: 4; fill: rgb(17,39,57); fill-rule: nonzero; opacity: 1;" vector-effect="non-scaling-stroke"  transform=" translate(-3227.13, -3424.31)" d="M 3122.15 3141.66 L 3122.15 3690.8199999999997 C 3122.15 3694.0499999999997 3122.96 3696.74 3124.58 3698.8999999999996 C 3125.65 3701.0399999999995 3127.12 3702.9399999999996 3129.02 3704.5499999999997 C 3130.9 3706.16 3133.99 3706.97 3138.31 3706.97 L 3332.12 3706.97 C 3332.12 3688.66 3331.99 3674.39 3331.72 3664.1699999999996 C 3331.45 3653.9399999999996 3330.91 3646.2699999999995 3330.1099999999997 3641.1499999999996 C 3329.2999999999997 3636.0399999999995 3327.6899999999996 3632.9399999999996 3325.2599999999998 3631.8699999999994 C 3322.8399999999997 3630.7799999999993 3319.74 3630.2499999999995 3315.9799999999996 3630.2499999999995 L 3212.6 3630.2499999999995 L 3212.6 3488.9299999999994 L 3310.3199999999997 3488.9299999999994 C 3310.3199999999997 3471.6899999999996 3310.18 3457.8299999999995 3309.9199999999996 3447.3299999999995 C 3309.6399999999994 3436.8399999999997 3309.1099999999997 3428.4799999999996 3308.2999999999997 3422.2899999999995 C 3307.4999999999995 3416.0999999999995 3306.0099999999998 3411.9199999999996 3303.8599999999997 3409.7899999999995 C 3301.7 3407.6299999999997 3298.74 3406.5499999999997 3294.9799999999996 3406.5499999999997 L 3212.5999999999995 3406.5499999999997 L 3212.5999999999995 3157.8099999999995 C 3212.5999999999995 3154.5799999999995 3212.0599999999995 3151.8799999999997 3210.9899999999993 3149.7399999999993 C 3209.899999999999 3147.5799999999995 3208.5599999999995 3145.689999999999 3206.9499999999994 3144.0799999999995 C 3205.3299999999995 3142.4699999999993 3202.3699999999994 3141.6599999999994 3198.0699999999993 3141.6599999999994 L 3122.149999999999 3141.6599999999994" stroke-linecap="round" />
</g>
<g transform="matrix(0.13 0 0 -0.13 460.59 615.82)"  >
<path style="stroke: none; stroke-width: 1; stroke-dasharray: none; stroke-linecap: butt; stroke-dashoffset: 0; stroke-linejoin: miter; stroke-miterlimit: 4; fill: rgb(17,39,57); fill-rule: nonzero; opacity: 1;" vector-effect="non-scaling-stroke"  transform=" translate(-3405.61, -3424.31)" d="M 3359.58 3667.4 C 3359.58 3677.09 3360.11 3684.63 3361.2 3690.02 C 3362.27 3695.39 3365.77 3699.31 3371.6899999999996 3701.73 C 3377.6099999999997 3704.15 3386.7599999999998 3705.62 3399.1599999999994 3706.16 C 3411.5299999999993 3706.7 3429.0299999999993 3706.97 3451.649999999999 3706.97 L 3451.649999999999 3157.81 C 3451.649999999999 3153.5 3451.099999999999 3150.2599999999998 3450.0299999999993 3148.12 C 3448.9499999999994 3145.97 3445.5899999999992 3144.48 3439.939999999999 3143.68 C 3434.2799999999993 3142.87 3425.119999999999 3142.3199999999997 3412.479999999999 3142.06 C 3399.8199999999993 3141.79 3382.189999999999 3141.66 3359.579999999999 3141.66 L 3359.579999999999 3667.3999999999996" stroke-linecap="round" />
</g>
<g transform="matrix(0.13 0 0 -0.13 484.06 623.95)"  >
<path style="stroke: none; stroke-width: 1; stroke-dasharray: none; stroke-linecap: butt; stroke-dashoffset: 0; stroke-linejoin: miter; stroke-miterlimit: 4; fill: rgb(17,39,57); fill-rule: nonzero; opacity: 1;" vector-effect="non-scaling-stroke"  transform=" translate(-3582.47, -3369.4)" d="M 3500.09 3330.63 C 3500.09 3357.55 3500.76 3377.2000000000003 3502.11 3389.59 C 3503.4500000000003 3401.9700000000003 3508.17 3408.1600000000003 3516.25 3408.1600000000003 L 3664.84 3408.1600000000003 C 3664.84 3381.2400000000002 3664.1600000000003 3361.59 3662.82 3349.2100000000005 C 3661.4700000000003 3336.8200000000006 3656.76 3330.6300000000006 3648.69 3330.6300000000006 L 3500.09 3330.6300000000006" stroke-linecap="round" />
</g>
<g transform="matrix(0.13 0 0 -0.13 518.57 615.82)"  >
<path style="stroke: none; stroke-width: 1; stroke-dasharray: none; stroke-linecap: butt; stroke-dashoffset: 0; stroke-linejoin: miter; stroke-miterlimit: 4; fill: rgb(17,39,57); fill-rule: nonzero; opacity: 1;" vector-effect="non-scaling-stroke"  transform=" translate(-3842.52, -3424.32)" d="M 3881.27 3402.51 L 3803.75 3402.51 L 3803.75 3157.8100000000004 C 3803.75 3153.5000000000005 3803.34 3150.26 3802.53 3148.1200000000003 C 3801.73 3145.9700000000003 3798.5 3144.4800000000005 3792.8500000000004 3143.6800000000003 C 3787.1900000000005 3142.8700000000003 3778.3100000000004 3142.32 3766.2000000000003 3142.0600000000004 C 3754.0800000000004 3141.7900000000004 3736.44 3141.6600000000003 3713.3 3141.6600000000003 L 3713.3 3690.82 C 3713.3 3694.5800000000004 3713.7000000000003 3697.69 3714.51 3700.11 C 3715.32 3702.53 3718.5400000000004 3704.15 3724.2000000000003 3704.9500000000003 C 3729.8500000000004 3705.76 3738.7400000000002 3706.2900000000004 3750.8500000000004 3706.57 C 3762.9600000000005 3706.84 3780.59 3706.9700000000003 3803.7500000000005 3706.9700000000003 L 3803.7500000000005 3484.88 L 3881.2700000000004 3484.88 L 3881.2700000000004 3690.82 C 3881.2700000000004 3694.5800000000004 3881.6800000000003 3697.69 3882.4900000000002 3700.11 C 3883.3 3702.53 3886.5200000000004 3704.15 3892.1800000000003 3704.9500000000003 C 3897.8300000000004 3705.76 3906.7100000000005 3706.2900000000004 3918.8300000000004 3706.57 C 3930.9400000000005 3706.84 3948.57 3706.9700000000003 3971.7300000000005 3706.9700000000003 L 3971.7300000000005 3157.8100000000004 C 3971.7300000000005 3153.5000000000005 3971.3200000000006 3150.26 3970.5100000000007 3148.1200000000003 C 3969.7100000000005 3145.9700000000003 3966.4700000000007 3144.4800000000005 3960.830000000001 3143.6800000000003 C 3955.170000000001 3142.8700000000003 3946.290000000001 3142.32 3934.170000000001 3142.0600000000004 C 3922.060000000001 3141.7900000000004 3904.420000000001 3141.6600000000003 3881.270000000001 3141.6600000000003 L 3881.270000000001 3402.51" stroke-linecap="round" />
</g>
<g transform="matrix(0.13 0 0 -0.13 556.45 615.82)"  >
<path style="stroke: none; stroke-width: 1; stroke-dasharray: none; stroke-linecap: butt; stroke-dashoffset: 0; stroke-linejoin: miter; stroke-miterlimit: 4; fill: rgb(17,39,57); fill-rule: nonzero; opacity: 1;" vector-effect="non-scaling-stroke"  transform=" translate(-4125.98, -3424.31)" d="M 4225.3 3222.42 C 4225.3 3203.56 4225.17 3188.77 4224.900000000001 3178 C 4224.63 3167.23 4224.09 3159.15 4223.290000000001 3153.77 C 4222.4800000000005 3148.39 4220.870000000001 3145.02 4218.4400000000005 3143.68 C 4216.02 3142.3199999999997 4212.910000000001 3141.66 4209.150000000001 3141.66 L 4020.9900000000007 3141.66 L 4020.9900000000007 3690.8199999999997 C 4020.9900000000007 3694.0499999999997 4021.8000000000006 3696.74 4023.4100000000008 3698.8999999999996 C 4024.480000000001 3701.0399999999995 4025.960000000001 3702.9399999999996 4027.850000000001 3704.5499999999997 C 4029.730000000001 3706.16 4032.8200000000006 3706.97 4037.140000000001 3706.97 L 4230.960000000001 3706.97 C 4230.960000000001 3688.66 4230.820000000001 3674.27 4230.560000000001 3663.77 C 4230.270000000001 3653.27 4229.750000000001 3645.2 4228.940000000001 3639.54 C 4228.130000000001 3633.89 4226.510000000001 3630.25 4224.090000000001 3628.63 C 4221.670000000001 3627.02 4218.560000000001 3626.21 4214.800000000001 3626.21 L 4111.440000000001 3626.21 L 4111.440000000001 3488.93 L 4209.1500000000015 3488.93 C 4209.1500000000015 3471.69 4209.010000000001 3457.83 4208.750000000002 3447.33 C 4208.480000000001 3436.84 4207.940000000001 3428.48 4207.140000000002 3422.29 C 4206.330000000002 3416.1 4204.830000000002 3411.92 4202.700000000003 3409.79 C 4200.540000000003 3407.63 4197.570000000002 3406.55 4193.810000000002 3406.55 L 4111.440000000002 3406.55 L 4111.440000000002 3222.42 L 4225.300000000002 3222.42" stroke-linecap="round" />
</g>
<g transform="matrix(0.13 0 0 -0.13 594.78 615.81)"  >
<path style="stroke: none; stroke-width: 1; stroke-dasharray: none; stroke-linecap: butt; stroke-dashoffset: 0; stroke-linejoin: miter; stroke-miterlimit: 4; fill: rgb(17,39,57); fill-rule: nonzero; opacity: 1;" vector-effect="non-scaling-stroke"  transform=" translate(-4415.22, -3424.32)" d="M 4379.54 3351.63 L 4453.04 3351.63 L 4437.7 3426.7400000000002 C 4433.38 3448.2700000000004 4429.47 3472.6400000000003 4425.98 3499.82 C 4422.469999999999 3527.01 4419.379999999999 3553.54 4416.69 3579.3700000000003 C 4413.99 3553.5400000000004 4410.759999999999 3527.01 4407 3499.82 C 4403.23 3472.6400000000003 4399.19 3448.27 4394.89 3426.7400000000002 z M 4469.99 3270.07 L 4362.59 3270.07 L 4339.16 3157 C 4338.62 3154.31 4337.8099999999995 3151.88 4336.74 3149.74 C 4335.65 3147.58 4333.78 3145.8199999999997 4331.08 3144.4799999999996 C 4328.39 3143.1299999999997 4324.49 3142.0599999999995 4319.38 3141.2599999999998 C 4314.26 3140.45 4307.13 3140.0499999999997 4297.9800000000005 3140.0499999999997 C 4292.05 3140.0499999999997 4283.700000000001 3140.3199999999997 4272.9400000000005 3140.85 C 4262.17 3141.4 4251.410000000001 3142.19 4240.63 3143.27 L 4375.51 3691.63 C 4377.66 3702.94 4389.77 3708.59 4411.85 3708.59 C 4419.38 3708.59 4426.910000000001 3708.31 4434.46 3707.78 C 4441.99 3707.2400000000002 4448.72 3706.44 4454.65 3705.36 L 4589.5199999999995 3156.2000000000003 C 4590.589999999999 3150.8100000000004 4588.709999999999 3146.7700000000004 4583.87 3144.0800000000004 C 4579.0199999999995 3141.4000000000005 4567.43 3140.05 4549.14 3140.05 C 4543.200000000001 3140.05 4535.9400000000005 3140.05 4527.33 3140.05 C 4518.71 3140.05 4508.48 3140.59 4496.64 3141.6600000000003 L 4469.990000000001 3270.07" stroke-linecap="round" />
</g>
<g transform="matrix(0.13 0 0 -0.13 635.44 615.82)"  >
<path style="stroke: none; stroke-width: 1; stroke-dasharray: none; stroke-linecap: butt; stroke-dashoffset: 0; stroke-linejoin: miter; stroke-miterlimit: 4; fill: rgb(17,39,57); fill-rule: nonzero; opacity: 1;" vector-effect="non-scaling-stroke"  transform=" translate(-4718.33, -3424.32)" d="M 4706.62 3226.46 L 4820.49 3226.46 L 4820.49 3157.81 C 4820.49 3151.35 4819 3147.0299999999997 4816.05 3144.89 C 4813.09 3142.73 4809.1900000000005 3141.66 4804.34 3141.66 L 4616.17 3141.66 L 4616.17 3684.37 C 4616.17 3689.74 4616.7 3694.0499999999997 4617.78 3697.29 C 4618.86 3700.52 4622.23 3702.79 4627.88 3704.15 C 4633.54 3705.4900000000002 4642.55 3706.29 4654.93 3706.57 C 4667.31 3706.84 4684.54 3706.9700000000003 4706.62 3706.9700000000003 L 4706.62 3226.46" stroke-linecap="round" />
</g>
<g transform="matrix(0.13 0 0 -0.13 663.13 615.82)"  >
<path style="stroke: none; stroke-width: 1; stroke-dasharray: none; stroke-linecap: butt; stroke-dashoffset: 0; stroke-linejoin: miter; stroke-miterlimit: 4; fill: rgb(17,39,57); fill-rule: nonzero; opacity: 1;" vector-effect="non-scaling-stroke"  transform=" translate(-4927.09, -3424.31)" d="M 4970.7 3622.99 L 4970.7 3157.81 C 4970.7 3153.5 4970.17 3150.2599999999998 4969.09 3148.12 C 4968.01 3145.97 4964.650000000001 3144.48 4958.99 3143.68 C 4953.34 3142.87 4944.32 3142.3199999999997 4931.94 3142.06 C 4919.549999999999 3141.79 4902.32 3141.66 4880.25 3141.66 L 4880.25 3622.99 L 4781.73 3622.99 L 4781.73 3690.8199999999997 C 4781.73 3701.58 4787.099999999999 3706.97 4797.879999999999 3706.97 L 5072.459999999999 3706.97 L 5072.459999999999 3639.14 C 5072.459999999999 3632.68 5071.249999999999 3628.3599999999997 5068.829999999999 3626.21 C 5066.409999999999 3624.05 5062.229999999999 3622.9900000000002 5056.309999999999 3622.9900000000002 L 4970.699999999999 3622.9900000000002" stroke-linecap="round" />
</g>
<g transform="matrix(0.13 0 0 -0.13 704.21 615.82)"  >
<path style="stroke: none; stroke-width: 1; stroke-dasharray: none; stroke-linecap: butt; stroke-dashoffset: 0; stroke-linejoin: miter; stroke-miterlimit: 4; fill: rgb(17,39,57); fill-rule: nonzero; opacity: 1;" vector-effect="non-scaling-stroke"  transform=" translate(-5234.78, -3424.32)" d="M 5273.54 3402.51 L 5196.0199999999995 3402.51 L 5196.0199999999995 3157.8100000000004 C 5196.0199999999995 3153.5000000000005 5195.61 3150.26 5194.799999999999 3148.1200000000003 C 5193.989999999999 3145.9700000000003 5190.759999999999 3144.4800000000005 5185.11 3143.6800000000003 C 5179.45 3142.8700000000003 5170.58 3142.32 5158.46 3142.0600000000004 C 5146.35 3141.7900000000004 5128.7 3141.6600000000003 5105.57 3141.6600000000003 L 5105.57 3690.82 C 5105.57 3694.5800000000004 5105.969999999999 3697.69 5106.78 3700.11 C 5107.58 3702.53 5110.8099999999995 3704.15 5116.46 3704.9500000000003 C 5122.12 3705.76 5131.01 3706.2900000000004 5143.12 3706.57 C 5155.23 3706.84 5172.86 3706.9700000000003 5196.0199999999995 3706.9700000000003 L 5196.0199999999995 3484.88 L 5273.54 3484.88 L 5273.54 3690.82 C 5273.54 3694.5800000000004 5273.95 3697.69 5274.76 3700.11 C 5275.56 3702.53 5278.79 3704.15 5284.4400000000005 3704.9500000000003 C 5290.1 3705.76 5298.9800000000005 3706.2900000000004 5311.09 3706.57 C 5323.21 3706.84 5340.84 3706.9700000000003 5363.99 3706.9700000000003 L 5363.99 3157.8100000000004 C 5363.99 3153.5000000000005 5363.58 3150.26 5362.78 3148.1200000000003 C 5361.969999999999 3145.9700000000003 5358.74 3144.4800000000005 5353.09 3143.6800000000003 C 5347.43 3142.8700000000003 5338.55 3142.32 5326.4400000000005 3142.0600000000004 C 5314.330000000001 3141.7900000000004 5296.68 3141.6600000000003 5273.540000000001 3141.6600000000003 L 5273.540000000001 3402.51" stroke-linecap="round" />
</g>
<g transform="matrix(0.13 0 0 -0.13 407.94 685.66)"  >
<path style="stroke: none; stroke-width: 1; stroke-dasharray: none; stroke-linecap: butt; stroke-dashoffset: 0; stroke-linejoin: miter; stroke-miterlimit: 4; fill: rgb(255,255,255); fill-rule: nonzero; opacity: 1;" vector-effect="non-scaling-stroke"  transform=" translate(-3010.57, -2905.16)" d="M 3015.47 3003.06 C 3028.52 3003.06 3037.72 3001.74 3043.0699999999997 2999.11 C 3048.4199999999996 2996.48 3051.0899999999997 2993.26 3051.0899999999997 2989.46 C 3051.0899999999997 2987.46 3050.68 2985.33 3049.87 2983.07 C 3049.0499999999997 2980.8 3047.65 2978.67 3045.65 2976.6800000000003 C 3043.6600000000003 2978.1200000000003 3040.3 2979.6200000000003 3035.59 2981.1600000000003 C 3030.8700000000003 2982.7100000000005 3025.3500000000004 2983.4800000000005 3019 2983.4800000000005 C 3010.84 2983.4800000000005 3004.41 2981.8000000000006 2999.7 2978.4500000000003 C 2994.98 2975.09 2992.6299999999997 2970.51 2992.6299999999997 2964.7200000000003 C 2992.6299999999997 2959.6400000000003 2993.6699999999996 2955.1000000000004 2995.7499999999995 2951.11 C 2997.8399999999997 2947.13 3000.9599999999996 2942.69 3005.1399999999994 2937.79 L 3034.5099999999993 2904.35 C 3037.939999999999 2900.17 3040.8499999999995 2896.23 3043.209999999999 2892.5099999999998 C 3045.559999999999 2888.7999999999997 3047.4699999999993 2885.08 3048.919999999999 2881.37 C 3050.369999999999 2877.65 3051.369999999999 2873.93 3051.909999999999 2870.21 C 3052.449999999999 2866.4900000000002 3052.719999999999 2862.55 3052.719999999999 2858.39 C 3052.719999999999 2851.49 3051.909999999999 2844.97 3050.279999999999 2838.81 C 3048.6499999999987 2832.64 3045.969999999999 2827.2 3042.259999999999 2822.49 C 3038.539999999999 2817.77 3033.549999999999 2814.06 3027.299999999999 2811.3399999999997 C 3021.0399999999986 2808.62 3013.299999999999 2807.2699999999995 3004.049999999999 2807.2699999999995 C 2991.719999999999 2807.2699999999995 2982.699999999999 2809.0299999999997 2976.989999999999 2812.5699999999997 C 2971.279999999999 2816.1 2968.4199999999987 2819.7699999999995 2968.4199999999987 2823.5699999999997 C 2968.4199999999987 2825.7499999999995 2968.8799999999987 2828.2899999999995 2969.7899999999986 2831.1899999999996 C 2970.6899999999987 2834.0899999999997 2972.1399999999985 2836.8099999999995 2974.1399999999985 2839.3499999999995 C 2977.0299999999984 2836.8099999999995 2980.7999999999984 2834.5899999999992 2985.4199999999987 2832.6899999999996 C 2990.0399999999986 2830.7799999999997 2995.6199999999985 2829.8299999999995 3002.1399999999985 2829.8299999999995 C 3011.9299999999985 2829.8299999999995 3018.8199999999983 2832.3699999999994 3022.8099999999986 2837.4399999999996 C 3026.7999999999984 2842.5199999999995 3028.7899999999986 2849.2299999999996 3028.7899999999986 2857.5699999999997 C 3028.7899999999986 2863.7299999999996 3027.6599999999985 2869.4399999999996 3025.3999999999987 2874.7 C 3023.1299999999987 2879.96 3018.9999999999986 2886.0299999999997 3013.0199999999986 2892.9199999999996 L 2985.5599999999986 2924.74 C 2979.3899999999985 2932.35 2975.0399999999986 2939.1899999999996 2972.4999999999986 2945.27 C 2969.9599999999987 2951.34 2968.6999999999985 2957.55 2968.6999999999985 2963.9 C 2968.6999999999985 2975.32 2972.6399999999985 2984.7000000000003 2980.5299999999984 2992.04 C 2988.4099999999985 2999.38 3000.0599999999986 3003.06 3015.4699999999984 3003.06" stroke-linecap="round" />
</g>
<g transform="matrix(0.13 0 0 -0.13 426.27 685.66)"  >
<path style="stroke: none; stroke-width: 1; stroke-dasharray: none; stroke-linecap: butt; stroke-dashoffset: 0; stroke-linejoin: miter; stroke-miterlimit: 4; fill: rgb(255,255,255); fill-rule: nonzero; opacity: 1;" vector-effect="non-scaling-stroke"  transform=" translate(-3147.9, -2905.15)" d="M 3135.66 2830.64 L 3182.44 2830.64 L 3182.44 2814.3399999999997 C 3182.44 2812.5199999999995 3182.03 2811.3399999999997 3181.21 2810.7999999999997 C 3180.4 2810.2499999999995 3179.26 2809.9799999999996 3177.81 2809.9799999999996 L 3113.36 2809.9799999999996 L 3113.36 2994.0799999999995 C 3113.36 2995.7099999999996 3113.5 2996.9299999999994 3113.77 2997.7499999999995 C 3114.04 2998.5599999999995 3114.9 2999.1499999999996 3116.35 2999.5199999999995 C 3117.7999999999997 2999.8799999999997 3120.02 3000.1099999999997 3123.02 3000.1999999999994 C 3126.0099999999998 3000.2899999999995 3130.22 3000.3299999999995 3135.66 3000.3299999999995 L 3135.66 2830.6399999999994" stroke-linecap="round" />
</g>
<g transform="matrix(0.13 0 0 -0.13 445.02 685.65)"  >
<path style="stroke: none; stroke-width: 1; stroke-dasharray: none; stroke-linecap: butt; stroke-dashoffset: 0; stroke-linejoin: miter; stroke-miterlimit: 4; fill: rgb(255,255,255); fill-rule: nonzero; opacity: 1;" vector-effect="non-scaling-stroke"  transform=" translate(-3288.89, -2905.15)" d="M 3263.47 2900.81 C 3263.47 2888.12 3263.87 2877.32 3264.6899999999996 2868.45 C 3265.5099999999998 2859.56 3266.9099999999994 2852.27 3268.9099999999994 2846.5499999999997 C 3270.899999999999 2840.85 3273.4799999999996 2836.6699999999996 3276.6599999999994 2834.0399999999995 C 3279.8199999999993 2831.4199999999996 3283.859999999999 2830.1099999999997 3288.7499999999995 2830.1099999999997 C 3293.6499999999996 2830.1099999999997 3297.7699999999995 2831.4599999999996 3301.1299999999997 2834.18 C 3304.4799999999996 2836.8999999999996 3307.2 2841.3399999999997 3309.2899999999995 2847.5099999999998 C 3311.3699999999994 2853.6699999999996 3312.8699999999994 2861.5499999999997 3313.7699999999995 2871.16 C 3314.6799999999994 2880.77 3315.1299999999997 2892.56 3315.1299999999997 2906.5099999999998 C 3315.1299999999997 2920.12 3314.7299999999996 2931.58 3313.91 2940.9199999999996 C 3313.1 2950.2499999999995 3311.73 2957.8699999999994 3309.83 2963.7599999999998 C 3307.93 2969.6499999999996 3305.39 2973.87 3302.22 2976.41 C 3299.04 2978.95 3295.0099999999998 2980.21 3290.12 2980.21 C 3285.4 2980.21 3281.37 2978.81 3278.0099999999998 2976 C 3274.66 2973.18 3271.89 2968.65 3269.72 2962.4 C 3267.54 2956.14 3265.9599999999996 2947.9900000000002 3264.9599999999996 2937.9300000000003 C 3263.9599999999996 2927.86 3263.47 2915.4900000000002 3263.47 2900.8100000000004 z M 3238.72 2906.25 C 3238.72 2924.37 3239.7599999999998 2939.6 3241.85 2951.93 C 3243.93 2964.2599999999998 3247.15 2974.18 3251.5 2981.71 C 3255.85 2989.23 3261.29 2994.63 3267.82 2997.89 C 3274.3500000000004 3001.15 3281.96 3002.7799999999997 3290.6600000000003 3002.7799999999997 C 3299.5400000000004 3002.7799999999997 3307.07 3001.24 3313.2300000000005 2998.16 C 3319.3900000000003 2995.08 3324.3800000000006 2989.8599999999997 3328.1900000000005 2982.52 C 3331.9900000000007 2975.19 3334.7600000000007 2965.34 3336.4800000000005 2953.02 C 3338.2000000000003 2940.69 3339.0600000000004 2925.37 3339.0600000000004 2907.06 C 3339.0600000000004 2888.39 3338.0700000000006 2872.71 3336.0700000000006 2860.02 C 3334.080000000001 2847.32 3331.0000000000005 2837.08 3326.830000000001 2829.29 C 3322.6600000000008 2821.49 3317.310000000001 2815.92 3310.7800000000007 2812.57 C 3304.2600000000007 2809.21 3296.5500000000006 2807.53 3287.6700000000005 2807.53 C 3278.9600000000005 2807.53 3271.4900000000007 2808.98 3265.2300000000005 2811.88 C 3258.9800000000005 2814.79 3253.9000000000005 2820 3250.0000000000005 2827.52 C 3246.1000000000004 2835.04 3243.2500000000005 2845.15 3241.4400000000005 2857.84 C 3239.6200000000003 2870.53 3238.7200000000007 2886.67 3238.7200000000007 2906.25" stroke-linecap="round" />
</g>
<g transform="matrix(0.13 0 0 -0.13 465.34 685.65)"  >
<path style="stroke: none; stroke-width: 1; stroke-dasharray: none; stroke-linecap: butt; stroke-dashoffset: 0; stroke-linejoin: miter; stroke-miterlimit: 4; fill: rgb(255,255,255); fill-rule: nonzero; opacity: 1;" vector-effect="non-scaling-stroke"  transform=" translate(-3441.18, -2905.16)" d="M 3455.18 3002.78 C 3464.4199999999996 3002.78 3471.5899999999997 3001.4300000000003 3476.6699999999996 2998.7000000000003 C 3481.74 2995.9900000000002 3484.2799999999997 2992.8100000000004 3484.2799999999997 2989.19 C 3484.2799999999997 2986.65 3483.9999999999995 2984.2000000000003 3483.4599999999996 2981.85 C 3482.9199999999996 2979.48 3482.1899999999996 2977.31 3481.2799999999997 2975.3199999999997 C 3478.93 2977.3099999999995 3475.89 2978.8999999999996 3472.18 2980.08 C 3468.46 2981.25 3464.33 2981.85 3459.7999999999997 2981.85 C 3452.91 2981.85 3446.9799999999996 2980.5299999999997 3441.99 2977.9 C 3437 2975.27 3432.9199999999996 2970.92 3429.7599999999998 2964.84 C 3426.58 2958.77 3424.27 2950.6200000000003 3422.8199999999997 2940.3700000000003 C 3421.37 2930.1300000000006 3420.64 2917.3900000000003 3420.64 2902.1700000000005 C 3420.64 2886.0300000000007 3421.2799999999997 2873.1500000000005 3422.5499999999997 2863.5500000000006 C 3423.81 2853.9500000000007 3425.6299999999997 2846.5500000000006 3427.99 2841.390000000001 C 3430.3399999999997 2836.2200000000007 3433.29 2832.8600000000006 3436.83 2831.330000000001 C 3440.36 2829.790000000001 3444.2999999999997 2829.0100000000007 3448.65 2829.0100000000007 C 3453.36 2829.0100000000007 3456.9900000000002 2829.830000000001 3459.53 2831.4600000000005 C 3462.07 2833.1000000000004 3463.7000000000003 2834.4500000000003 3464.42 2835.5500000000006 L 3464.42 2902.9800000000005 L 3444.58 2902.9800000000005 L 3444.58 2917.1200000000003 C 3444.58 2920.2100000000005 3446.29 2921.7500000000005 3449.74 2921.7500000000005 L 3485.37 2921.7500000000005 L 3485.0899999999997 2819.5000000000005 C 3482.0099999999998 2816.7800000000007 3477.43 2814.1000000000004 3471.3599999999997 2811.4700000000003 C 3465.2799999999997 2808.8500000000004 3457.5299999999997 2807.53 3448.1099999999997 2807.53 C 3439.0399999999995 2807.53 3431.2499999999995 2808.8 3424.72 2811.34 C 3418.2 2813.88 3412.8999999999996 2818.59 3408.81 2825.48 C 3404.74 2832.37 3401.74 2841.88 3399.84 2854.03 C 3397.94 2866.1800000000003 3396.9900000000002 2881.77 3396.9900000000002 2900.8100000000004 C 3396.9900000000002 2922.0200000000004 3398.34 2939.2900000000004 3401.0600000000004 2952.6100000000006 C 3403.78 2965.9400000000005 3407.6300000000006 2976.3100000000004 3412.6200000000003 2983.7500000000005 C 3417.61 2991.1800000000003 3423.6800000000003 2996.2100000000005 3430.84 2998.8400000000006 C 3438 3001.4600000000005 3446.11 3002.7800000000007 3455.1800000000003 3002.7800000000007" stroke-linecap="round" />
</g>
<g transform="matrix(0.13 0 0 -0.13 485.99 685.64)"  >
<path style="stroke: none; stroke-width: 1; stroke-dasharray: none; stroke-linecap: butt; stroke-dashoffset: 0; stroke-linejoin: miter; stroke-miterlimit: 4; fill: rgb(255,255,255); fill-rule: nonzero; opacity: 1;" vector-effect="non-scaling-stroke"  transform=" translate(-3596.38, -2905.29)" d="M 3577.82 2878.51 L 3615.3500000000004 2878.51 L 3606.1000000000004 2917.1200000000003 C 3605.01 2921.6500000000005 3603.9700000000003 2926.28 3602.9700000000003 2931.0000000000005 C 3601.9800000000005 2935.7000000000003 3601.07 2940.3700000000003 3600.26 2945.0000000000005 C 3599.44 2949.6200000000003 3598.7200000000003 2954.0100000000007 3598.0800000000004 2958.1800000000003 C 3597.4400000000005 2962.3500000000004 3596.9500000000003 2966.07 3596.5900000000006 2969.34 C 3596.2200000000007 2966.07 3595.6700000000005 2962.3500000000004 3594.9600000000005 2958.1800000000003 C 3594.2300000000005 2954.01 3593.4600000000005 2949.6600000000003 3592.6400000000003 2945.1400000000003 C 3591.8300000000004 2940.6000000000004 3590.9600000000005 2935.9300000000003 3590.0600000000004 2931.13 C 3589.1500000000005 2926.32 3588.1500000000005 2921.65 3587.0700000000006 2917.12 z M 3619.9700000000003 2858.3900000000003 L 3573.2000000000003 2858.3900000000003 L 3562.59 2813.7900000000004 C 3562.23 2812.3300000000004 3561.5 2811.2500000000005 3560.42 2810.53 C 3559.33 2809.8 3556.61 2809.4300000000003 3552.26 2809.4300000000003 C 3550.8100000000004 2809.4300000000003 3548.76 2809.4800000000005 3546.1400000000003 2809.57 C 3543.51 2809.67 3540.9300000000003 2809.8900000000003 3538.3900000000003 2810.25 L 3586.8 2997.34 C 3587.34 2999.88 3590.15 3001.15 3595.2200000000003 3001.15 C 3599.3900000000003 3001.15 3602.84 3000.88 3605.5600000000004 3000.33 L 3654.2400000000002 2814.06 C 3654.59 2812.61 3654.19 2811.47 3653.01 2810.66 C 3651.8300000000004 2809.8399999999997 3649.07 2809.43 3644.7200000000003 2809.43 C 3643.09 2809.43 3641.1800000000003 2809.43 3639.01 2809.43 C 3636.8300000000004 2809.43 3634.38 2809.62 3631.67 2809.98 L 3619.9700000000003 2858.39" stroke-linecap="round" />
</g>
<g transform="matrix(0.13 0 0 -0.13 507.7 685.66)"  >
<path style="stroke: none; stroke-width: 1; stroke-dasharray: none; stroke-linecap: butt; stroke-dashoffset: 0; stroke-linejoin: miter; stroke-miterlimit: 4; fill: rgb(255,255,255); fill-rule: nonzero; opacity: 1;" vector-effect="non-scaling-stroke"  transform=" translate(-3758.93, -2905.16)" d="M 3755.4 2884.77 C 3754.13 2887.84 3752.4 2892.6 3750.23 2899.04 C 3748.05 2905.47 3745.69 2912.45 3743.16 2919.98 C 3740.62 2927.5 3738.1299999999997 2935.03 3735.68 2942.55 C 3733.23 2950.07 3731.19 2956.46 3729.56 2961.7200000000003 C 3729.92 2957.3700000000003 3730.2799999999997 2951.2000000000003 3730.65 2943.2300000000005 C 3731.01 2935.2500000000005 3731.33 2927.0900000000006 3731.6 2918.7600000000007 C 3731.87 2910.4100000000008 3732.0499999999997 2902.6700000000005 3732.14 2895.5100000000007 C 3732.23 2888.3400000000006 3732.2799999999997 2883.310000000001 3732.2799999999997 2880.4100000000008 L 3732.2799999999997 2814.3400000000006 C 3732.2799999999997 2813.2400000000007 3732.14 2812.3800000000006 3731.87 2811.7500000000005 C 3731.6 2811.1100000000006 3730.79 2810.6600000000003 3729.42 2810.3900000000003 C 3728.07 2810.1200000000003 3725.89 2809.9800000000005 3722.9 2809.9800000000005 C 3719.9100000000003 2809.9800000000005 3715.69 2809.9800000000005 3710.25 2809.9800000000005 L 3710.25 2995.7100000000005 C 3710.25 2998.7900000000004 3711.79 3000.3300000000004 3714.88 3000.3300000000004 L 3731.7400000000002 3000.3300000000004 L 3762.19 2926.9100000000003 C 3763.46 2923.28 3765.2200000000003 2918.2500000000005 3767.5 2911.82 C 3769.76 2905.38 3772.16 2898.4500000000003 3774.7 2891.02 C 3777.24 2883.58 3779.6899999999996 2876.2 3782.0499999999997 2868.86 C 3784.3999999999996 2861.51 3786.3999999999996 2855.3 3788.0299999999997 2850.2200000000003 L 3788.0299999999997 2851.0400000000004 C 3787.4799999999996 2855.03 3787.08 2860.9200000000005 3786.7999999999997 2868.7200000000003 C 3786.5299999999997 2876.51 3786.2599999999998 2884.53 3785.99 2892.78 C 3785.7099999999996 2901.0400000000004 3785.5299999999997 2908.78 3785.4399999999996 2916.0400000000004 C 3785.3499999999995 2923.28 3785.3099999999995 2928.5400000000004 3785.3099999999995 2931.8100000000004 L 3785.3099999999995 2995.7100000000005 C 3785.3099999999995 2996.8000000000006 3785.4399999999996 2997.6600000000003 3785.7099999999996 2998.3000000000006 C 3785.99 2998.9300000000007 3786.8499999999995 2999.3800000000006 3788.2999999999997 2999.6600000000008 C 3789.7499999999995 2999.9300000000007 3791.97 3000.1100000000006 3794.9599999999996 3000.2000000000007 C 3797.9499999999994 3000.290000000001 3802.1699999999996 3000.330000000001 3807.6099999999997 3000.330000000001 L 3807.6099999999997 2814.340000000001 C 3807.6099999999997 2811.430000000001 3806.0599999999995 2809.980000000001 3802.9799999999996 2809.980000000001 L 3786.3999999999996 2809.980000000001 L 3755.3999999999996 2884.770000000001" stroke-linecap="round" />
</g>
<g transform="matrix(0.13 0 0 -0.13 534.01 685.65)"  >
<path style="stroke: none; stroke-width: 1; stroke-dasharray: none; stroke-linecap: butt; stroke-dashoffset: 0; stroke-linejoin: miter; stroke-miterlimit: 4; fill: rgb(255,255,255); fill-rule: nonzero; opacity: 1;" vector-effect="non-scaling-stroke"  transform=" translate(-3956.22, -2905.16)" d="M 3970.22 3002.78 C 3979.4599999999996 3002.78 3986.6299999999997 3001.4300000000003 3991.7 2998.7000000000003 C 3996.7799999999997 2995.9900000000002 3999.3199999999997 2992.8100000000004 3999.3199999999997 2989.19 C 3999.3199999999997 2986.65 3999.0399999999995 2984.2000000000003 3998.4999999999995 2981.85 C 3997.9599999999996 2979.48 3997.2299999999996 2977.31 3996.3199999999997 2975.3199999999997 C 3993.9599999999996 2977.3099999999995 3990.93 2978.8999999999996 3987.22 2980.08 C 3983.5 2981.25 3979.37 2981.85 3974.8399999999997 2981.85 C 3967.95 2981.85 3962.0199999999995 2980.5299999999997 3957.0299999999997 2977.9 C 3952.04 2975.27 3947.9599999999996 2970.92 3944.79 2964.84 C 3941.62 2958.77 3939.31 2950.6200000000003 3937.86 2940.3700000000003 C 3936.4100000000003 2930.1300000000006 3935.6800000000003 2917.3900000000003 3935.6800000000003 2902.1700000000005 C 3935.6800000000003 2886.0300000000007 3936.32 2873.1500000000005 3937.59 2863.5500000000006 C 3938.8500000000004 2853.9500000000007 3940.67 2846.5500000000006 3943.03 2841.390000000001 C 3945.38 2836.2200000000007 3948.3300000000004 2832.8600000000006 3951.8700000000003 2831.330000000001 C 3955.4000000000005 2829.790000000001 3959.34 2829.0100000000007 3963.6900000000005 2829.0100000000007 C 3968.4000000000005 2829.0100000000007 3972.0300000000007 2829.830000000001 3974.5700000000006 2831.4600000000005 C 3977.1100000000006 2833.1000000000004 3978.7400000000007 2834.4500000000003 3979.4600000000005 2835.5500000000006 L 3979.4600000000005 2902.9800000000005 L 3959.6100000000006 2902.9800000000005 L 3959.6100000000006 2917.1200000000003 C 3959.6100000000006 2920.2100000000005 3961.3300000000004 2921.7500000000005 3964.7800000000007 2921.7500000000005 L 4000.4100000000008 2921.7500000000005 L 4000.1300000000006 2819.5000000000005 C 3997.0500000000006 2816.7800000000007 3992.4700000000007 2814.1000000000004 3986.4000000000005 2811.4700000000003 C 3980.3200000000006 2808.8500000000004 3972.5700000000006 2807.53 3963.1500000000005 2807.53 C 3954.0800000000004 2807.53 3946.2900000000004 2808.8 3939.7600000000007 2811.34 C 3933.2400000000007 2813.88 3927.9300000000007 2818.59 3923.850000000001 2825.48 C 3919.7800000000007 2832.37 3916.7800000000007 2841.88 3914.880000000001 2854.03 C 3912.980000000001 2866.1800000000003 3912.030000000001 2881.77 3912.030000000001 2900.8100000000004 C 3912.030000000001 2922.0200000000004 3913.380000000001 2939.2900000000004 3916.1000000000013 2952.6100000000006 C 3918.820000000001 2965.9400000000005 3922.6700000000014 2976.3100000000004 3927.660000000001 2983.7500000000005 C 3932.650000000001 2991.1800000000003 3938.720000000001 2996.2100000000005 3945.880000000001 2998.8400000000006 C 3953.040000000001 3001.4600000000005 3961.150000000001 3002.7800000000007 3970.220000000001 3002.7800000000007" stroke-linecap="round" />
</g>
<g transform="matrix(0.13 0 0 -0.13 554.55 685.65)"  >
<path style="stroke: none; stroke-width: 1; stroke-dasharray: none; stroke-linecap: butt; stroke-dashoffset: 0; stroke-linejoin: miter; stroke-miterlimit: 4; fill: rgb(255,255,255); fill-rule: nonzero; opacity: 1;" vector-effect="non-scaling-stroke"  transform=" translate(-4110.4, -2905.15)" d="M 4084.97 2900.81 C 4084.97 2888.12 4085.3799999999997 2877.32 4086.2 2868.45 C 4087.0099999999998 2859.56 4088.4199999999996 2852.27 4090.41 2846.5499999999997 C 4092.3999999999996 2840.85 4094.99 2836.6699999999996 4098.16 2834.0399999999995 C 4101.34 2831.4199999999996 4105.37 2830.1099999999997 4110.26 2830.1099999999997 C 4115.16 2830.1099999999997 4119.280000000001 2831.4599999999996 4122.64 2834.18 C 4125.990000000001 2836.8999999999996 4128.71 2841.3399999999997 4130.8 2847.5099999999998 C 4132.88 2853.6699999999996 4134.38 2861.5499999999997 4135.28 2871.16 C 4136.19 2880.77 4136.639999999999 2892.56 4136.639999999999 2906.5099999999998 C 4136.639999999999 2920.12 4136.23 2931.58 4135.419999999999 2940.9199999999996 C 4134.599999999999 2950.2499999999995 4133.239999999999 2957.8699999999994 4131.339999999999 2963.7599999999998 C 4129.429999999999 2969.6499999999996 4126.889999999999 2973.87 4123.73 2976.41 C 4120.549999999999 2978.95 4116.5199999999995 2980.21 4111.62 2980.21 C 4106.9 2980.21 4102.87 2978.81 4099.5199999999995 2976 C 4096.16 2973.18 4093.4099999999994 2968.65 4091.2299999999996 2962.4 C 4089.0499999999997 2956.14 4087.4599999999996 2947.9900000000002 4086.4699999999993 2937.9300000000003 C 4085.4699999999993 2927.86 4084.9699999999993 2915.4900000000002 4084.9699999999993 2900.8100000000004 z M 4060.22 2906.25 C 4060.22 2924.37 4061.27 2939.6 4063.3599999999997 2951.93 C 4065.4399999999996 2964.2599999999998 4068.66 2974.18 4073.0099999999998 2981.71 C 4077.3599999999997 2989.23 4082.7999999999997 2994.63 4089.33 2997.89 C 4095.85 3001.15 4103.47 3002.7799999999997 4112.17 3002.7799999999997 C 4121.04 3002.7799999999997 4128.57 3001.24 4134.74 2998.16 C 4140.9 2995.08 4145.889999999999 2989.8599999999997 4149.7 2982.52 C 4153.51 2975.19 4156.26 2965.34 4157.99 2953.02 C 4159.71 2940.69 4160.58 2925.37 4160.58 2907.06 C 4160.58 2888.39 4159.57 2872.71 4157.58 2860.02 C 4155.59 2847.32 4152.5 2837.08 4148.34 2829.29 C 4144.16 2821.49 4138.82 2815.92 4132.29 2812.57 C 4125.76 2809.21 4118.06 2807.53 4109.18 2807.53 C 4100.4800000000005 2807.53 4093.0000000000005 2808.98 4086.7400000000002 2811.88 C 4080.4900000000002 2814.79 4075.4100000000003 2820 4071.51 2827.52 C 4067.6200000000003 2835.04 4064.76 2845.15 4062.9500000000003 2857.84 C 4061.13 2870.53 4060.2200000000003 2886.67 4060.2200000000003 2906.25" stroke-linecap="round" />
</g>
<g transform="matrix(0.13 0 0 -0.13 574.27 685.66)"  >
<path style="stroke: none; stroke-width: 1; stroke-dasharray: none; stroke-linecap: butt; stroke-dashoffset: 0; stroke-linejoin: miter; stroke-miterlimit: 4; fill: rgb(255,255,255); fill-rule: nonzero; opacity: 1;" vector-effect="non-scaling-stroke"  transform=" translate(-4257.93, -2905.15)" d="M 4291.91 2829.83 C 4291.91 2825.12 4291.88 2821.45 4291.78 2818.8199999999997 C 4291.69 2816.1899999999996 4291.509999999999 2814.24 4291.24 2812.97 C 4290.969999999999 2811.7 4290.5599999999995 2810.89 4290.01 2810.5299999999997 C 4289.47 2810.16 4288.650000000001 2809.9799999999996 4287.570000000001 2809.9799999999996 L 4223.120000000001 2809.9799999999996 L 4223.120000000001 2995.7099999999996 L 4223.660000000001 2997.8899999999994 L 4225.160000000001 2999.5199999999995 C 4225.790000000001 3000.0699999999997 4226.650000000001 3000.3299999999995 4227.740000000001 3000.3299999999995 L 4292.7300000000005 3000.3299999999995 C 4292.7300000000005 2995.7999999999993 4292.7300000000005 2992.2199999999993 4292.7300000000005 2989.5899999999997 C 4292.7300000000005 2986.9599999999996 4292.6 2984.97 4292.320000000001 2983.6099999999997 C 4292.05 2982.2599999999998 4291.650000000001 2981.39 4291.1 2981.0299999999997 C 4290.56 2980.66 4289.75 2980.49 4288.650000000001 2980.49 L 4245.420000000001 2980.49 L 4245.420000000001 2923.6499999999996 L 4286.210000000001 2923.6499999999996 C 4286.210000000001 2919.47 4286.210000000001 2916.0399999999995 4286.210000000001 2913.3199999999997 C 4286.210000000001 2910.6 4286.070000000001 2908.5199999999995 4285.800000000001 2907.0599999999995 C 4285.530000000001 2905.6099999999997 4285.120000000001 2904.6199999999994 4284.580000000001 2904.0699999999997 C 4284.030000000001 2903.5299999999997 4283.210000000001 2903.2499999999995 4282.130000000001 2903.2499999999995 L 4245.420000000001 2903.2499999999995 L 4245.420000000001 2829.8299999999995 L 4291.910000000001 2829.8299999999995" stroke-linecap="round" />
</g>
<g transform="matrix(0.13 0 0 -0.13 591.84 685.66)"  >
<path style="stroke: none; stroke-width: 1; stroke-dasharray: none; stroke-linecap: butt; stroke-dashoffset: 0; stroke-linejoin: miter; stroke-miterlimit: 4; fill: rgb(255,255,255); fill-rule: nonzero; opacity: 1;" vector-effect="non-scaling-stroke"  transform=" translate(-4389.82, -2905.16)" d="M 4394.72 3003.06 C 4407.76 3003.06 4416.96 3001.74 4422.31 2999.11 C 4427.660000000001 2996.48 4430.330000000001 2993.26 4430.330000000001 2989.46 C 4430.330000000001 2987.46 4429.930000000001 2985.33 4429.110000000001 2983.07 C 4428.3 2980.8 4426.89 2978.67 4424.900000000001 2976.6800000000003 C 4422.900000000001 2978.1200000000003 4419.55 2979.6200000000003 4414.830000000001 2981.1600000000003 C 4410.120000000001 2982.7100000000005 4404.590000000001 2983.4800000000005 4398.250000000001 2983.4800000000005 C 4390.090000000001 2983.4800000000005 4383.650000000001 2981.8000000000006 4378.9400000000005 2978.4500000000003 C 4374.2300000000005 2975.09 4371.870000000001 2970.51 4371.870000000001 2964.7200000000003 C 4371.870000000001 2959.6400000000003 4372.910000000001 2955.1000000000004 4375.000000000001 2951.11 C 4377.080000000001 2947.13 4380.210000000001 2942.69 4384.380000000001 2937.79 L 4413.750000000001 2904.35 C 4417.1900000000005 2900.17 4420.090000000001 2896.23 4422.450000000001 2892.5099999999998 C 4424.800000000001 2888.7999999999997 4426.710000000001 2885.08 4428.160000000001 2881.37 C 4429.610000000001 2877.65 4430.610000000001 2873.93 4431.150000000001 2870.21 C 4431.700000000001 2866.4900000000002 4431.97 2862.55 4431.97 2858.39 C 4431.97 2851.49 4431.150000000001 2844.97 4429.52 2838.81 C 4427.89 2832.64 4425.21 2827.2 4421.490000000001 2822.49 C 4417.780000000001 2817.77 4412.790000000001 2814.06 4406.540000000001 2811.3399999999997 C 4400.280000000001 2808.62 4392.540000000001 2807.2699999999995 4383.290000000001 2807.2699999999995 C 4370.960000000001 2807.2699999999995 4361.9400000000005 2809.0299999999997 4356.2300000000005 2812.5699999999997 C 4350.530000000001 2816.1 4347.67 2819.7699999999995 4347.67 2823.5699999999997 C 4347.67 2825.7499999999995 4348.12 2828.2899999999995 4349.02 2831.1899999999996 C 4349.93 2834.0899999999997 4351.38 2836.8099999999995 4353.38 2839.3499999999995 C 4356.28 2836.8099999999995 4360.04 2834.5899999999992 4364.67 2832.6899999999996 C 4369.29 2830.7799999999997 4374.86 2829.8299999999995 4381.39 2829.8299999999995 C 4391.18 2829.8299999999995 4398.070000000001 2832.3699999999994 4402.05 2837.4399999999996 C 4406.04 2842.5199999999995 4408.04 2849.2299999999996 4408.04 2857.5699999999997 C 4408.04 2863.7299999999996 4406.9 2869.4399999999996 4404.64 2874.7 C 4402.37 2879.96 4398.25 2886.0299999999997 4392.27 2892.9199999999996 L 4364.790000000001 2924.74 C 4358.630000000001 2932.35 4354.290000000001 2939.1899999999996 4351.750000000001 2945.27 C 4349.210000000001 2951.34 4347.9400000000005 2957.55 4347.9400000000005 2963.9 C 4347.9400000000005 2975.32 4351.88 2984.7000000000003 4359.77 2992.04 C 4367.660000000001 2999.38 4379.3 3003.06 4394.72 3003.06" stroke-linecap="round" />
</g>
<g transform="matrix(0.13 0 0 -0.13 617.08 685.66)"  >
<path style="stroke: none; stroke-width: 1; stroke-dasharray: none; stroke-linecap: butt; stroke-dashoffset: 0; stroke-linejoin: miter; stroke-miterlimit: 4; fill: rgb(255,255,255); fill-rule: nonzero; opacity: 1;" vector-effect="non-scaling-stroke"  transform=" translate(-4579.22, -2905.16)" d="M 4600.83 2902.44 L 4557.6 2902.44 L 4557.6 2814.34 C 4557.6 2813.2400000000002 4557.5 2812.38 4557.320000000001 2811.75 C 4557.14 2811.11 4556.370000000001 2810.66 4555.01 2810.39 C 4553.650000000001 2810.12 4551.47 2809.98 4548.49 2809.98 C 4545.5 2809.98 4541.179999999999 2809.98 4535.57 2809.98 L 4535.57 2995.71 C 4535.57 2996.8 4535.65 2997.66 4535.84 2998.3 C 4536.02 2998.9300000000003 4536.8 2999.38 4538.150000000001 2999.6600000000003 C 4539.51 2999.9300000000003 4541.6900000000005 3000.11 4544.68 3000.2000000000003 C 4547.67 3000.2900000000004 4551.97 3000.3300000000004 4557.6 3000.3300000000004 L 4557.6 2922.8300000000004 L 4600.83 2922.8300000000004 L 4600.83 2995.7100000000005 C 4600.83 2996.8000000000006 4600.92 2997.6600000000003 4601.1 2998.3000000000006 C 4601.280000000001 2998.9300000000007 4602.06 2999.3800000000006 4603.42 2999.6600000000008 C 4604.78 2999.9300000000007 4606.95 3000.1100000000006 4609.9400000000005 3000.2000000000007 C 4612.9400000000005 3000.290000000001 4617.240000000001 3000.330000000001 4622.860000000001 3000.330000000001 L 4622.860000000001 2814.340000000001 C 4622.860000000001 2813.240000000001 4622.76 2812.380000000001 4622.59 2811.750000000001 C 4622.400000000001 2811.110000000001 4621.64 2810.6600000000008 4620.27 2810.390000000001 C 4618.92 2810.120000000001 4616.740000000001 2809.980000000001 4613.75 2809.980000000001 C 4610.76 2809.980000000001 4606.46 2809.980000000001 4600.83 2809.980000000001 L 4600.83 2902.440000000001" stroke-linecap="round" />
</g>
<g transform="matrix(0.13 0 0 -0.13 636.46 685.66)"  >
<path style="stroke: none; stroke-width: 1; stroke-dasharray: none; stroke-linecap: butt; stroke-dashoffset: 0; stroke-linejoin: miter; stroke-miterlimit: 4; fill: rgb(255,255,255); fill-rule: nonzero; opacity: 1;" vector-effect="non-scaling-stroke"  transform=" translate(-4724.29, -2905.15)" d="M 4758.28 2829.83 C 4758.28 2825.12 4758.24 2821.45 4758.139999999999 2818.8199999999997 C 4758.0599999999995 2816.1899999999996 4757.879999999999 2814.24 4757.61 2812.97 C 4757.33 2811.7 4756.92 2810.89 4756.38 2810.5299999999997 C 4755.84 2810.16 4755.02 2809.9799999999996 4753.9400000000005 2809.9799999999996 L 4689.4800000000005 2809.9799999999996 L 4689.4800000000005 2995.7099999999996 L 4690.030000000001 2997.8899999999994 L 4691.52 2999.5199999999995 C 4692.160000000001 3000.0699999999997 4693.02 3000.3299999999995 4694.110000000001 3000.3299999999995 L 4759.1 3000.3299999999995 C 4759.1 2995.7999999999993 4759.1 2992.2199999999993 4759.1 2989.5899999999997 C 4759.1 2986.9599999999996 4758.96 2984.97 4758.6900000000005 2983.6099999999997 C 4758.42 2982.2599999999998 4758.02 2981.39 4757.47 2981.0299999999997 C 4756.92 2980.66 4756.110000000001 2980.49 4755.02 2980.49 L 4711.790000000001 2980.49 L 4711.790000000001 2923.6499999999996 L 4752.580000000001 2923.6499999999996 C 4752.580000000001 2919.47 4752.580000000001 2916.0399999999995 4752.580000000001 2913.3199999999997 C 4752.580000000001 2910.6 4752.4400000000005 2908.5199999999995 4752.170000000001 2907.0599999999995 C 4751.890000000001 2905.6099999999997 4751.480000000001 2904.6199999999994 4750.950000000001 2904.0699999999997 C 4750.400000000001 2903.5299999999997 4749.580000000001 2903.2499999999995 4748.500000000001 2903.2499999999995 L 4711.790000000001 2903.2499999999995 L 4711.790000000001 2829.8299999999995 L 4758.280000000001 2829.8299999999995" stroke-linecap="round" />
</g>
<g transform="matrix(0.13 0 0 -0.13 654.62 685.7)"  >
<path style="stroke: none; stroke-width: 1; stroke-dasharray: none; stroke-linecap: butt; stroke-dashoffset: 0; stroke-linejoin: miter; stroke-miterlimit: 4; fill: rgb(255,255,255); fill-rule: nonzero; opacity: 1;" vector-effect="non-scaling-stroke"  transform=" translate(-4860.66, -2904.88)" d="M 4876.03 2947.58 C 4876.03 2957.91 4874.48 2966.0699999999997 4871.41 2972.0499999999997 C 4868.32 2978.0399999999995 4862.71 2981.0299999999997 4854.54 2981.0299999999997 L 4840.95 2981.0299999999997 L 4840.95 2907.6099999999997 L 4852.91 2907.6099999999997 C 4860.53 2907.6099999999997 4866.28 2910.6299999999997 4870.18 2916.72 C 4874.070000000001 2922.7799999999997 4876.030000000001 2933.08 4876.030000000001 2947.58 z M 4818.92 2995.71 L 4819.46 2997.89 L 4820.82 2999.52 C 4821.37 3000.07 4822.28 3000.33 4823.54 3000.33 L 4850.47 3000.33 C 4867.6900000000005 3000.33 4880.33 2996.12 4888.400000000001 2987.7 C 4896.460000000001 2979.2599999999998 4900.500000000001 2965.5299999999997 4900.500000000001 2946.49 C 4900.500000000001 2931.81 4898.330000000001 2920.25 4893.970000000001 2911.8199999999997 C 4889.620000000001 2903.39 4883.920000000001 2897.18 4876.850000000001 2893.1899999999996 C 4879.010000000001 2890.4799999999996 4881.420000000001 2886.8499999999995 4884.050000000001 2882.3099999999995 C 4886.670000000001 2877.7799999999993 4889.260000000001 2872.3399999999997 4891.800000000001 2865.9999999999995 C 4894.340000000001 2859.6499999999996 4896.560000000001 2852.2199999999993 4898.460000000001 2843.6999999999994 C 4900.360000000001 2835.1799999999994 4901.680000000001 2825.5699999999993 4902.400000000001 2814.8699999999994 C 4902.400000000001 2812.8799999999997 4901.870000000001 2811.4699999999993 4900.77 2810.6599999999994 C 4899.6900000000005 2809.8399999999992 4896.51 2809.4299999999994 4891.26 2809.4299999999994 C 4889.4400000000005 2809.4299999999994 4887.45 2809.4799999999996 4885.27 2809.5699999999993 C 4883.1 2809.669999999999 4880.740000000001 2809.7999999999993 4878.200000000001 2809.979999999999 C 4877.470000000001 2821.409999999999 4876.200000000001 2831.459999999999 4874.39 2840.169999999999 C 4872.58 2848.869999999999 4870.59 2856.349999999999 4868.410000000001 2862.599999999999 C 4866.240000000001 2868.859999999999 4864.010000000001 2874.019999999999 4861.750000000001 2878.109999999999 C 4859.4800000000005 2882.1799999999994 4857.540000000001 2885.2999999999993 4855.900000000001 2887.479999999999 C 4854.990000000001 2887.289999999999 4854.09 2887.209999999999 4853.18 2887.209999999999 C 4852.280000000001 2887.209999999999 4851.37 2887.209999999999 4850.47 2887.209999999999 L 4840.95 2887.209999999999 L 4840.95 2814.3399999999992 C 4840.95 2813.2399999999993 4840.8099999999995 2812.379999999999 4840.54 2811.749999999999 C 4840.26 2811.109999999999 4839.45 2810.659999999999 4838.1 2810.389999999999 C 4836.7300000000005 2810.119999999999 4834.56 2809.979999999999 4831.56 2809.979999999999 C 4828.570000000001 2809.979999999999 4824.360000000001 2809.979999999999 4818.92 2809.979999999999 L 4818.92 2995.709999999999" stroke-linecap="round" />
</g>
<g transform="matrix(0.13 0 0 -0.13 672.97 685.66)"  >
<path style="stroke: none; stroke-width: 1; stroke-dasharray: none; stroke-linecap: butt; stroke-dashoffset: 0; stroke-linejoin: miter; stroke-miterlimit: 4; fill: rgb(255,255,255); fill-rule: nonzero; opacity: 1;" vector-effect="non-scaling-stroke"  transform=" translate(-4998.12, -2905.15)" d="M 5032.11 2829.83 C 5032.11 2825.12 5032.07 2821.45 5031.969999999999 2818.8199999999997 C 5031.879999999999 2816.1899999999996 5031.709999999999 2814.24 5031.44 2812.97 C 5031.16 2811.7 5030.75 2810.89 5030.21 2810.5299999999997 C 5029.67 2810.16 5028.85 2809.9799999999996 5027.76 2809.9799999999996 L 4963.31 2809.9799999999996 L 4963.31 2995.7099999999996 L 4963.860000000001 2997.8899999999994 L 4965.35 2999.5199999999995 C 4965.990000000001 3000.0699999999997 4966.85 3000.3299999999995 4967.9400000000005 3000.3299999999995 L 5032.93 3000.3299999999995 C 5032.93 2995.7999999999993 5032.93 2992.2199999999993 5032.93 2989.5899999999997 C 5032.93 2986.9599999999996 5032.79 2984.97 5032.52 2983.6099999999997 C 5032.25 2982.2599999999998 5031.85 2981.39 5031.3 2981.0299999999997 C 5030.75 2980.66 5029.9400000000005 2980.49 5028.85 2980.49 L 4985.620000000001 2980.49 L 4985.620000000001 2923.6499999999996 L 5026.410000000001 2923.6499999999996 C 5026.410000000001 2919.47 5026.410000000001 2916.0399999999995 5026.410000000001 2913.3199999999997 C 5026.410000000001 2910.6 5026.27 2908.5199999999995 5026.000000000001 2907.0599999999995 C 5025.720000000001 2905.6099999999997 5025.310000000001 2904.6199999999994 5024.780000000001 2904.0699999999997 C 5024.2300000000005 2903.5299999999997 5023.410000000001 2903.2499999999995 5022.320000000001 2903.2499999999995 L 4985.620000000001 2903.2499999999995 L 4985.620000000001 2829.8299999999995 L 5032.110000000001 2829.8299999999995" stroke-linecap="round" />
</g>
<g transform="matrix(0.13 0 0 -0.13 537.12 434.1)"  >
<path style="stroke: none; stroke-width: 1; stroke-dasharray: none; stroke-linecap: butt; stroke-dashoffset: 0; stroke-linejoin: miter; stroke-miterlimit: 4; fill: rgb(255,255,255); fill-rule: nonzero; opacity: 1;" vector-effect="non-scaling-stroke"  transform=" translate(-3999.98, -4772.69)" d="M 4634.33 5144.73 L 4467.41 5144.73 C 4467.41 5144.73 4466.61 5048.639999999999 4465.49 5030.2699999999995 L 4634.33 5030.2699999999995 C 4697.51 5030.2699999999995 4748.82 4978.91 4748.82 4915.78 L 4748.82 4629.61 C 4748.82 4566.429999999999 4697.509999999999 4515.099999999999 4634.33 4515.099999999999 L 4314.78 4515.099999999999 C 4248.17 4515.099999999999 4198.79 4521.66 4162.15 4534.089999999999 C 4110.04 4551.7699999999995 4083.7699999999995 4581.36 4070.6099999999997 4621.289999999999 C 4044.8199999999997 4620.119999999999 4020.8199999999997 4620.039999999999 3999.93 4620.039999999999 C 3984.2999999999997 4620.039999999999 3968.6 4620.009999999999 3953.49 4619.719999999999 C 3972.16 4530.959999999999 4023.0899999999997 4449.57 4162.15 4416.419999999999 C 4190.129999999999 4409.739999999999 4222.009999999999 4405.209999999999 4257.54 4402.749999999999 L 4257.54 4138.279999999999 C 4257.54 4075.159999999999 4206.17 4023.819999999999 4143.11 4023.819999999999 L 3856.87 4023.819999999999 C 3793.74 4023.819999999999 3742.35 4075.159999999999 3742.35 4138.279999999999 L 3742.35 4457.859999999999 C 3742.35 4715.419999999999 3839.3199999999997 4715.419999999999 3999.93 4715.419999999999 C 4157.01 4715.449999999999 4372.0199999999995 4715.48 4372.0199999999995 5087.539999999999 L 4372.0199999999995 5407.079999999999 C 4372.0199999999995 5533.339999999999 4269.3099999999995 5636.039999999999 4143.11 5636.039999999999 L 3856.87 5636.009999999999 C 3730.6099999999997 5636.009999999999 3627.9 5533.32 3627.9 5407.079999999999 L 3627.9 5144.729999999999 L 3365.56 5144.729999999999 C 3239.2799999999997 5144.729999999999 3136.61 5042.039999999999 3136.61 4915.779999999999 L 3136.61 4629.609999999999 C 3136.61 4503.359999999999 3239.28 4400.6399999999985 3365.56 4400.6399999999985 L 3532.5 4400.6399999999985 L 3532.5 4457.859999999999 C 3532.5 4477.8899999999985 3533.25 4496.749999999999 3534.4 4515.0999999999985 L 3365.56 4515.0999999999985 C 3302.41 4515.0999999999985 3251.1 4566.4299999999985 3251.1 4629.609999999999 L 3251.1 4915.779999999999 C 3251.1 4978.909999999999 3302.41 5030.269999999999 3365.56 5030.269999999999 L 3685.14 5030.269999999999 C 3751.85 5030.269999999999 3801.18 5023.719999999998 3837.74 5011.299999999998 C 3889.8199999999997 4993.649999999999 3916.1499999999996 4964.039999999998 3929.3599999999997 4924.0999999999985 C 3955.12 4925.269999999999 3979.1099999999997 4925.359999999999 3999.93 4925.359999999999 C 4015.6 4925.359999999999 4031.3399999999997 4925.379999999999 4046.48 4925.699999999999 C 4027.81 5014.4299999999985 3976.84 5095.829999999999 3837.74 5128.969999999999 C 3809.79 5135.659999999999 3777.91 5140.179999999999 3742.35 5142.619999999999 L 3742.35 5407.079999999999 C 3742.35 5470.209999999999 3793.74 5521.549999999999 3856.87 5521.549999999999 L 4143.11 5521.57 C 4206.17 5521.57 4257.54 5470.24 4257.54 5407.08 L 4257.54 5087.54 C 4257.54 4829.97 4160.6 4829.97 3999.93 4829.94 C 3842.96 4829.94 3627.8999999999996 4829.94 3627.8999999999996 4457.86 L 3627.8999999999996 4138.28 C 3627.8999999999996 4012.0499999999997 3730.6099999999997 3909.3399999999997 3856.8699999999994 3909.3399999999997 L 4143.11 3909.3399999999997 C 4269.3099999999995 3909.3399999999997 4372.0199999999995 4012.0499999999997 4372.0199999999995 4138.28 L 4372.0199999999995 4400.639999999999 L 4634.33 4400.639999999999 C 4760.59 4400.639999999999 4863.36 4503.36 4863.36 4629.61 L 4863.36 4915.78 C 4863.36 5042.04 4760.589999999999 5144.73 4634.33 5144.73" stroke-linecap="round" />
</g>
</svg>